inDegrees=yes
name=ik_S41_A01_T02
DataType=double
version=3
OpenSimVersion=4.3-2021-08-27-4bc7ad9
endheader
time	pelvis_tilt	pelvis_list	pelvis_rotation	pelvis_tx	pelvis_ty	pelvis_tz	hip_flexion_r	hip_adduction_r	hip_rotation_r	knee_angle_r	knee_angle_r_beta	ankle_angle_r	subtalar_angle_r	mtp_angle_r	hip_flexion_l	hip_adduction_l	hip_rotation_l	knee_angle_l	knee_angle_l_beta	ankle_angle_l	subtalar_angle_l	mtp_angle_l	lumbar_extension	lumbar_bending	lumbar_rotation	arm_flex_r	arm_add_r	arm_rot_r	elbow_flex_r	pro_sup_r	wrist_flex_r	wrist_dev_r	arm_flex_l	arm_add_l	arm_rot_l	elbow_flex_l	pro_sup_l	wrist_flex_l	wrist_dev_l
0	0	0	0	0	0.9399999999999999	0	0	0	0	0	0	0	0	0	0	0	0	0	0	0	0	0	0	0	0	0	0	0	0	89.99999999963507	0	0	0	0	0	0	89.99999999869995	0	0
0.02	-0.3324505603772407	-2.022835913610835	-83.95630286198076	0	0.9399999999999999	0	1.756783402654644	4.49967250845752	5.764467051585251	1.306950370087966	0.02281058711819342	0	0	0	0.5059908359081124	2.605305324871368	-0.4272526558171179	1.923560185700935	0.03357245860075486	0	0	0	0	0	0	1.634251409205853	-1.634251409205853	0.2909110215934479	8.117609522468635	89.70908899513356	0	0	1.634251409205853	-1.634251409205853	0.2909110215934479	8.117609522468635	89.70908899425305	0	0
0.04	-0.3540793435884838	-2.003448884833285	-84.05968389326006	0	0.9399999999999999	0	1.768911869640081	4.476692406704782	5.664019759360842	1.301888317018068	0.02272223762521301	0	0	0	0.4946257199894059	2.6076208873403	-0.4299443280261419	1.927009002075438	0.03363265180178663	0	0	0	0	0	0	1.635521663040053	-1.635521663040053	0.2911596635801637	8.128988317027691	89.70884035316172	0	0	1.635521663040053	-1.635521663040053	0.2911596635801637	8.128988317027691	89.70884035228126	0	0
0.06	-0.3920374089368241	-1.950010156725511	-84.22264054450189	0	0.9399999999999999	0	1.830679468361786	4.466934105381191	5.679806703357104	1.321944507215905	0.02307228417957148	0	0	0	0.5137826465385354	2.594688719315612	-0.4757692428950544	1.912651277952143	0.03338206224274212	0	0	0	0	0	0	1.637506438907328	-1.637506438907328	0.2915486200006463	8.146871494039125	89.70845139676449	0	0	1.637506438907328	-1.637506438907328	0.2915486200006463	8.146871494039125	89.70845139588413	0	0
0.08	-0.432113231301441	-1.92742851187197	-84.41812791755632	0	0.9399999999999999	0	1.860898401268666	4.476056044172704	5.702664776099154	1.353541520309716	0.02362375609185425	0	0	0	0.4906533776549767	2.584829105504618	-0.5785107855468468	1.890996558731558	0.03300411609374802	0	0	0	0	0	0	1.639251216893655	-1.639251216893655	0.2918900099202554	8.162443311231357	89.70811000686533	0	0	1.639251216893655	-1.639251216893655	0.2918900099202554	8.162443311231357	89.70811000598499	0	0
0.1	-0.4901521470240153	-1.898568699924367	-84.71212075006054	0	0.9399999999999999	0	1.892246281473651	4.536554054819636	5.826260878213946	1.441680043862602	0.02516206352569867	0	0	0	0.4708579515305221	2.53992424895891	-0.7815062069746672	1.817049220537813	0.0317134915691814	0	0	0	0	0	0	1.644194927555264	-1.644194927555264	0.2928610675510417	8.207389587825183	89.70713894929267	0	0	1.644194927555264	-1.644194927555264	0.2928610675510417	8.207389587825183	89.70713894841253	0	0
0.12	-0.4946766157378741	-1.89083744790498	-84.71440757913778	0	0.9399999999999999	0	1.891197373515616	4.526969503781982	5.707062983630452	1.463508148021881	0.02554303581274635	0	0	0	0.4087315610067884	2.569957754946929	-0.7210335872607628	1.793525720667205	0.03130292904484683	0	0	0	0	0	0	1.646272222489315	-1.646272222489315	0.2932691770315271	8.226234913782806	89.70673083983661	0	0	1.646272222489315	-1.646272222489315	0.2932691770315271	8.226234913782806	89.70673083895659	0	0
0.14	-0.5653980117701192	-1.865225219444523	-85.0542778713058	0	0.9399999999999999	0	1.898035870274861	4.587669760403332	5.915552590052628	1.532075315920355	0.02673975865134249	0	0	0	0.3845537262711008	2.509547828200438	-0.9768311079842419	1.709551668973446	0.02983730535655082	0	0	0	0	0	0	1.650843542759514	-1.650843542759514	0.2941661201314996	8.267420521313564	89.70583389679032	0	0	1.650843542759514	-1.650843542759514	0.2941661201314996	8.267420521313564	89.70583389591044	0	0
0.16	-0.6037990540575576	-1.869263095899593	-85.19053744156722	0	0.9399999999999999	0	1.867431894963823	4.587729149255789	6.0119876221147	1.550251521280294	0.02705699328039208	0	0	0	0.315065648121956	2.512867233316277	-1.013970369203332	1.700570601482616	0.02968055615849201	0	0	0	0	0	0	1.652865995523062	-1.652865995523062	0.2945616794552542	8.285342710124539	89.70543833749024	0	0	1.652865995523062	-1.652865995523062	0.2945616794552542	8.285342710124539	89.70543833661044	0	0
0.18	-0.6315432301995429	-1.869929553888716	-85.3297981134299	0	0.9399999999999999	0	1.857877273311944	4.620631398413326	6.145941225535757	1.561570512287274	0.0272545469414675	0	0	0	0.2698581113587489	2.509953514105742	-1.049531181475857	1.669749310934209	0.0291426231587085	0	0	0	0	0	0	1.655208229282944	-1.655208229282944	0.2950196441703161	8.306024382460137	89.70498037280258	0	0	1.655208229282944	-1.655208229282944	0.2950196441703161	8.306024382460137	89.70498037192284	0	0
0.2	-0.6680097273349983	-1.836229492116964	-85.45133586869564	0	0.9399999999999999	0	1.849248546141967	4.605885581937011	6.212360237476433	1.575297608284431	0.02749412996335523	0	0	0	0.2440663993072576	2.517015182647424	-1.015029326108697	1.673084513981538	0.02920083343310693	0	0	0	0	0	0	1.656425204539143	-1.656425204539143	0.295257168048825	8.316680867940402	89.7047428489383	0	0	1.656425204539143	-1.656425204539143	0.295257168048825	8.316680867940402	89.70474284805861	0	0
0.22	-0.6994093778101433	-1.823290561845783	-85.56712907930054	0	0.9399999999999999	0	1.850894558993313	4.628060900369934	6.315477124844772	1.592945324133598	0.02780214071037957	0	0	0	0.2084120979004038	2.530527961940968	-0.9769356059384003	1.681994002211823	0.02935633333739309	0	0	0	0	0	0	1.657715852326669	-1.657715852326669	0.2955088085954933	8.32790085084668	89.70449120840669	0	0	1.657715852326669	-1.657715852326669	0.2955088085954933	8.32790085084668	89.70449120752704	0	0
0.24	-0.7493516072244539	-1.831232690987299	-85.71937719636796	0	0.9399999999999999	0	1.814278996608156	4.632826917433918	6.375599337212199	1.656437778367633	0.0289102930869353	0	0	0	0.2100774286759655	2.478502920448591	-1.136766219495965	1.741180529923042	0.03038933311877673	0	0	0	0	0	0	1.665750667864081	-1.665750667864081	0.2970879484912284	8.400567023165708	89.70291206860556	0	0	1.665750667864081	-1.665750667864081	0.2970879484912284	8.400567023165708	89.7029120677262	0	0
0.26	-0.7922689544443358	-1.793526839478059	-85.88346243995815	0	0.9399999999999999	0	1.821024381654224	4.637945609538918	6.444093969790903	1.667741688086632	0.02910758352988002	0	0	0	0.1349315399747121	2.522025759471414	-0.9893671806458635	1.753912084046981	0.03061154065713534	0	0	0	0	0	0	1.666843031313264	-1.666843031313264	0.2973011653811045	8.410081165221607	89.70269885172843	0	0	1.666843031313264	-1.666843031313264	0.2973011653811045	8.410081165221607	89.70269885084913	0	0
0.28	-0.8166515403275315	-1.77423110963188	-85.99678693057741	0	0.9399999999999999	0	1.838590114990939	4.656017981821963	6.537615444495754	1.675402901568392	0.02924129692983491	0	0	0	0.08391447880054523	2.541531873425193	-0.9214470076516175	1.759173111476445	0.0307033629078172	0	0	0	0	0	0	1.66756767174017	-1.66756767174017	0.2974414660795476	8.416122652430685	89.70255855103835	0	0	1.66756767174017	-1.66756767174017	0.2974414660795476	8.416122652430685	89.70255855015911	0	0
